HIERARCHY
ROOT Hips
{
	OFFSET -3.958830 18.904000 13.208200
	CHANNELS 6 Xposition Yposition Zposition Zrotation Yrotation Xrotation 
	JOINT LHipJoint
	{
		OFFSET 0.000000 0.000000 0.000000
		CHANNELS 3 Zrotation Yrotation Xrotation
		JOINT LeftUpLeg
		{
			OFFSET 1.800000 -1.400000 0.085000
			CHANNELS 3 Zrotation Yrotation Xrotation
			JOINT LeftLeg
			{
				OFFSET 2.215000 -6.000000 0.000000
				CHANNELS 3 Zrotation Yrotation Xrotation
				JOINT LeftFoot
				{
					OFFSET 2.500000 -6.900000 0.000000
					CHANNELS 3 Zrotation Yrotation Xrotation
					JOINT LeftToeBase
					{
						OFFSET 0.200000 -0.500000 1.950000
						CHANNELS 3 Zrotation Yrotation Xrotation
						End Site
						{
							OFFSET 0.000000 0.000000 0.000000
						}
					}
				}
			}
		}
	}
	JOINT RHipJoint
	{
		OFFSET 0.000000 0.000000 0.000000
		CHANNELS 3 Zrotation Yrotation Xrotation
		JOINT RightUpLeg
		{
			OFFSET -1.800000 -1.400000 0.085000
			CHANNELS 3 Zrotation Yrotation Xrotation
			JOINT RightLeg
			{
				OFFSET -2.215000 -6.000000 0.000000
				CHANNELS 3 Zrotation Yrotation Xrotation
				JOINT RightFoot
				{
					OFFSET -2.500000 -6.900000 0.000000
					CHANNELS 3 Zrotation Yrotation Xrotation
					JOINT RightToeBase
					{
						OFFSET -0.200000 -0.500000 1.950000
						CHANNELS 3 Zrotation Yrotation Xrotation
						End Site
						{
							OFFSET 0.000000 0.000000 0.000000
						}
					}
				}
			}
		}
	}
	JOINT LowerBack
	{
		OFFSET 0.000000 0.000000 0.000000
		CHANNELS 3 Zrotation Yrotation Xrotation
		JOINT Spine
		{
			OFFSET -0.087000 1.940000 -0.288900
			CHANNELS 3 Zrotation Yrotation Xrotation
			JOINT Spine1
			{
				OFFSET 0.000000 1.950000 0.060000
				CHANNELS 3 Zrotation Yrotation Xrotation
				JOINT Neck
				{
					OFFSET 0.000000 0.000000 0.000000
					CHANNELS 3 Zrotation Yrotation Xrotation
					JOINT Neck1
					{
						OFFSET 0.000000 1.600000 0.340000
						CHANNELS 3 Zrotation Yrotation Xrotation
						JOINT Head
						{
							OFFSET 0.000000 1.667000 -0.240000
							CHANNELS 3 Zrotation Yrotation Xrotation
							End Site
							{
								OFFSET 0.000000 0.000000 0.000000
							}
						}
					}
				}
				JOINT LeftShoulder
				{
					OFFSET 0.000000 0.000000 0.000000
					CHANNELS 3 Zrotation Yrotation Xrotation
					JOINT LeftArm
					{
						OFFSET 2.700000 1.550000 -0.730000
						CHANNELS 3 Zrotation Yrotation Xrotation
						JOINT LeftForeArm
						{
							OFFSET 5.450000 0.000000 0.000000
							CHANNELS 3 Zrotation Yrotation Xrotation
							JOINT LeftHand
							{
								OFFSET 3.450000 0.000000 0.000000
								CHANNELS 3 Zrotation Yrotation Xrotation
								JOINT LeftHandIndex1
								{
									OFFSET 0.750000 0.000000 0.000000
									CHANNELS 3 Zrotation Yrotation Xrotation
									End Site
									{
										OFFSET 0.000000 0.000000 0.000000
									}
								}
							}
						}
					}
				}
				JOINT RightShoulder
				{
					OFFSET 0.000000 0.000000 0.000000
					CHANNELS 3 Zrotation Yrotation Xrotation
					JOINT RightArm
					{
						OFFSET -2.700000 1.550000 -0.730000
						CHANNELS 3 Zrotation Yrotation Xrotation
						JOINT RightForeArm
						{
							OFFSET -5.450000 0.000000 0.000000
							CHANNELS 3 Zrotation Yrotation Xrotation
							JOINT RightHand
							{
								OFFSET -3.450000 0.000000 0.000000
								CHANNELS 3 Zrotation Yrotation Xrotation
								JOINT RightHandIndex1
								{
									OFFSET -0.750000 0.000000 0.000000
									CHANNELS 3 Zrotation Yrotation Xrotation
									End Site
									{
										OFFSET 0.000000 0.000000 0.000000
									}
								}
							}
						}
					}
				}
			}
		}
	}
}
MOTION
Frames: 6
Frame Time: 0.016667
-0.322690 17.292880 -8.556320 -3.723326 -5.485366 0.517857 -15.433159 14.125622 3.130926 27.841762 0.392379 -17.979004 -1.369951 7.845101 20.439433 0.005948 5.588272 2.398259 0.164280 0.190740 -0.136090 17.915693 -10.624407 1.810416 -24.237926 -0.101105 -17.845058 3.834233 -6.600311 23.094227 -0.118007 -4.092553 2.773459 0.149440 0.251200 0.038990 -2.619909 -3.964758 -7.539917 1.383249 -1.019784 8.048858 0.836004 0.182849 8.905803 -1.168104 -10.689240 -15.024639 -32.502356 10.953979 39.802168 4.228470 -2.782160 -3.261280 -21.770045 -22.365138 5.355461 -63.094722 -29.691669 12.597900 -11.643010 -15.750972 1.106075 -3.592596 3.137409 0.165260 -0.001650 0.010370 0.200470 25.784347 28.790794 13.310884 48.234769 8.452923 -6.493747 23.546016 38.537325 4.523540 2.313965 -1.478235 -0.068380 0.275700 0.052600 0.123650 
-0.337990 17.301550 -8.539760 -3.237168 -6.007030 0.321666 -15.456764 14.200665 3.109279 27.426396 0.182017 -16.913250 -1.872370 7.747547 19.427758 -0.031630 5.532185 2.417226 0.174140 0.194080 -0.099110 17.881369 -10.594143 1.800407 -24.363608 -0.316584 -18.152314 3.395872 -6.457277 22.813671 -0.119621 -4.015159 2.786429 0.159280 0.230020 0.041940 -2.520808 -4.148061 -7.514929 0.684469 -1.079409 8.112220 -0.044411 0.307610 9.129981 -0.838406 -10.135555 -14.814375 -31.628783 11.488861 40.178806 3.942020 -1.605120 -3.697500 -22.928559 -22.175392 5.193090 -63.344471 -31.229821 13.411072 -13.144586 -18.467596 1.565212 -3.582929 3.138931 0.191420 -0.002870 0.024270 0.180250 26.136571 27.993758 13.241638 49.406497 7.152898 -7.289241 24.089735 39.703331 4.675936 2.297859 -1.472321 -0.081290 0.274890 0.054800 0.093720 
-0.383360 17.353730 -8.535540 -3.118999 -6.395175 -0.072515 -15.459256 14.201324 3.161527 27.447788 0.062238 -16.156907 -2.734843 7.808589 18.451364 -0.062110 5.564774 2.400689 0.171890 0.173440 -0.066460 17.872971 -10.588271 1.772893 -23.890917 -0.405371 -18.282174 3.204698 -6.483250 23.208205 -0.129801 -4.001511 2.778936 0.155250 0.215730 0.049500 -2.496232 -4.191056 -7.533269 0.688412 -1.246539 8.529391 -0.947378 0.277795 9.293828 -0.434946 -9.285722 -14.527902 -30.047182 12.314465 41.935443 4.042960 -0.302650 -3.606320 -24.218241 -21.789584 5.207160 -62.694389 -31.592151 13.182862 -15.782376 -22.796583 2.420387 -3.576344 3.137789 0.230020 -0.003460 0.037670 0.158160 26.396015 26.872429 12.863823 50.218024 6.411232 -7.791153 26.027863 41.028180 5.383187 2.291689 -1.465677 -0.102190 0.271800 0.065620 0.059310 
-0.425810 17.421750 -8.522900 -2.950034 -6.999581 -0.468845 -15.441449 14.203608 3.077267 26.890850 0.002039 -15.023066 -2.739293 7.558160 17.391813 -0.090814 5.458725 2.444463 0.169780 0.157760 -0.032830 17.881440 -10.611381 1.820553 -23.905595 -0.501139 -18.480137 3.879179 -6.817356 23.513297 -0.146858 -4.092833 2.728862 0.149420 0.198380 0.064560 -2.519810 -4.103452 -7.483604 1.071944 -1.064116 8.690723 -1.469747 0.489764 9.756011 -0.100779 -8.254008 -13.688666 -27.432918 12.244294 43.930086 3.767810 0.738820 -3.447540 -24.614273 -20.210054 4.933047 -62.953052 -31.895958 13.349500 -19.991817 -28.535264 4.125982 -3.594330 3.151834 0.251760 0.003500 0.050990 0.136670 25.778534 24.608601 12.095072 51.348596 5.512544 -8.488207 28.337855 43.490673 6.483564 2.286223 -1.480839 -0.110700 0.256560 0.070290 0.030020 
-0.475530 17.504120 -8.519240 -3.046373 -7.475727 -0.604222 -15.413798 14.139506 3.003662 26.494577 -0.044520 -14.517990 -2.677090 7.360892 16.621177 -0.115104 5.383486 2.482948 0.130360 0.107270 -0.037040 17.915488 -10.600425 1.903344 -23.914064 -0.488887 -18.917827 5.161536 -7.344516 23.837528 -0.139437 -4.257426 2.666553 0.130670 0.215790 0.073300 -2.603472 -3.950242 -7.443413 2.046243 -1.005165 8.608578 -1.340315 0.411064 10.323727 0.048678 -7.154663 -12.853850 -24.319174 11.767928 45.696562 3.072560 1.839730 -2.029980 -23.812797 -18.644984 4.679741 -63.116194 -32.063849 13.763511 -25.422280 -33.897305 6.672075 -3.658925 3.173236 0.239440 0.043390 0.026750 0.114790 24.393207 22.262288 11.165571 52.006755 5.274472 -8.680487 31.443094 46.105759 8.127764 2.282252 -1.514972 -0.131030 0.240220 0.092770 0.008850 
-0.540090 17.595760 -8.517420 -2.974872 -7.917607 -0.676996 -15.378328 14.049152 2.957240 26.187149 -0.085029 -14.245279 -2.980566 7.363458 16.357008 -0.117948 5.378601 2.494132 0.088290 0.046810 -0.034290 17.953285 -10.596849 1.998066 -24.140955 -0.496513 -19.101587 6.348011 -7.675834 23.284921 -0.126024 -4.341978 2.632000 0.100190 0.226530 0.083850 -2.707069 -3.740185 -7.446613 3.075819 -0.947064 8.477649 -1.064326 0.287993 10.701901 0.244483 -5.980440 -12.351695 -21.211011 11.049286 47.742726 2.218120 2.881330 -0.296870 -23.577565 -17.971170 4.727873 -62.770737 -31.699545 13.806898 -30.761315 -38.206863 9.512090 -3.713466 3.200482 0.225770 0.077910 0.005540 0.091270 23.633293 20.767722 10.439662 52.742653 5.370245 -8.692316 32.740417 46.779811 8.774067 2.288918 -1.530933 -0.145520 0.214770 0.110540 -0.011900 
